<?xml version="1.0" standalone="no"?>
<!DOCTYPE svg PUBLIC "-//W3C//DTD SVG 20010904//EN"
 "http://www.w3.org/TR/2001/REC-SVG-20010904/DTD/svg10.dtd">
<svg version="1.0" xmlns="http://www.w3.org/2000/svg"
 width="500.000000pt" height="400.000000pt" viewBox="0 0 500.000000 400.000000"
 preserveAspectRatio="xMidYMid meet">

<g transform="translate(0.000000,400.000000) scale(0.100000,-0.100000)"
fill="#000000" stroke="none">
<path d="M625 2681 c-110 -31 -112 -21 40 -172 75 -74 138 -133 141 -132 3 0
67 61 142 133 l135 132 -34 15 c-19 9 -58 21 -88 29 l-53 13 -54 -50 -53 -50
-52 50 c-29 28 -55 51 -58 50 -3 0 -33 -8 -66 -18z"/>
<path d="M395 2567 c-45 -40 -48 -45 -34 -64 8 -11 110 -118 227 -238 l213
-218 230 229 c126 126 228 233 226 239 -5 15 -108 97 -117 93 -4 -2 -81 -74
-170 -160 -89 -87 -166 -158 -170 -158 -4 0 -78 72 -164 160 -87 88 -165 160
-174 160 -10 0 -40 -19 -67 -43z"/>
<path d="M251 2410 c-23 -35 -41 -68 -41 -74 0 -5 59 -70 131 -142 76 -77 129
-139 127 -148 -1 -8 -60 -73 -130 -144 -71 -72 -128 -136 -128 -143 0 -15 55
-102 75 -119 10 -9 56 31 219 191 113 111 206 207 206 213 0 6 -94 105 -209
220 l-209 209 -41 -63z"/>
<path d="M1101 2252 l-214 -207 207 -213 c115 -116 212 -210 216 -207 14 8 80
113 80 126 0 6 -59 72 -131 146 -72 73 -129 138 -127 143 2 5 63 70 137 145
l135 137 -23 41 c-13 23 -33 54 -45 69 l-22 28 -213 -208z"/>
<path d="M3849 2350 c-95 -17 -163 -77 -174 -154 -9 -60 1 -101 37 -142 36
-40 63 -54 183 -88 126 -37 157 -76 84 -107 -40 -16 -101 2 -123 36 -15 23
-22 25 -101 25 -46 0 -86 -4 -89 -8 -10 -17 15 -83 45 -117 61 -69 176 -98
305 -76 128 22 184 84 184 202 0 104 -42 145 -193 186 -113 31 -147 48 -147
73 0 44 86 55 126 15 23 -23 32 -25 114 -25 55 0 90 4 90 10 0 19 -30 84 -48
103 -49 55 -186 86 -293 67z"/>
<path d="M1770 2035 l0 -305 95 0 94 0 3 93 3 92 105 5 c125 7 168 23 209 80
57 79 51 197 -15 270 -53 59 -105 70 -318 70 l-176 0 0 -305z m341 145 c24
-13 27 -81 3 -101 -9 -7 -43 -13 -82 -13 l-67 -1 -3 63 -3 62 66 0 c37 0 75
-5 86 -10z"/>
<path d="M2400 2035 l0 -305 175 0 c150 0 182 3 228 20 111 42 169 137 170
280 1 111 -22 179 -78 235 -64 65 -107 75 -317 75 l-178 0 0 -305z m321 139
c39 -20 59 -68 59 -139 0 -109 -45 -159 -138 -153 l-47 3 -3 140 c-1 76 0 145
2 152 7 18 90 17 127 -3z"/>
<path d="M3020 2328 c1 -7 45 -143 98 -303 l97 -290 100 -3 100 -2 98 292 c53
161 97 299 97 306 0 17 -179 17 -185 0 -11 -36 -54 -191 -90 -322 -9 -32 -18
-56 -20 -54 -2 2 -24 82 -49 178 -24 96 -48 183 -51 193 -6 14 -21 17 -101 17
-69 0 -94 -3 -94 -12z"/>
<path d="M4442 2308 c-6 -18 -29 -85 -52 -148 -22 -63 -47 -133 -55 -155 -20
-61 -82 -238 -90 -258 -7 -16 0 -18 91 -15 l98 3 9 38 9 38 101 -3 101 -3 9
-37 9 -38 94 0 c52 0 94 4 94 8 0 5 -23 74 -51 153 -90 256 -120 343 -137 394
l-17 50 -102 3 -102 3 -9 -33z m163 -335 l7 -33 -62 0 c-52 0 -61 3 -56 15 3
9 13 41 21 73 9 31 21 70 28 87 11 29 11 29 33 -40 12 -39 25 -85 29 -102z"/>
<path d="M170 2245 c-18 -48 -32 -186 -25 -250 7 -67 24 -146 34 -157 4 -4 56
42 116 102 l110 110 -112 112 -112 112 -11 -29z"/>
<path d="M1306 2151 l-109 -109 108 -111 c60 -61 112 -111 116 -111 14 0 39
144 39 227 0 79 -25 213 -39 213 -3 0 -55 -49 -115 -109z"/>
<path d="M647 1884 c-250 -258 -297 -308 -297 -319 0 -10 71 -68 109 -90 11
-6 58 37 177 160 l162 169 168 -162 c113 -109 173 -161 183 -157 26 10 100 69
106 85 4 9 -71 90 -224 244 l-229 229 -155 -159z"/>
<path d="M665 1580 c-76 -76 -137 -141 -135 -142 22 -16 86 -38 125 -43 46 -7
47 -7 99 44 l52 51 49 -50 c27 -27 55 -50 62 -50 15 0 154 47 162 55 2 3 -11
19 -30 36 -19 17 -81 78 -139 135 l-105 104 -140 -140z"/>
</g>
</svg>
