<?xml version="1.0" encoding="UTF-8"?>
<!DOCTYPE svg PUBLIC "-//W3C//DTD SVG 1.1//EN" "http://www.w3.org/Graphics/SVG/1.1/DTD/svg11.dtd">
<svg xmlns="http://www.w3.org/2000/svg" version="1.1" width="512px" height="512px" style="shape-rendering:geometricPrecision; text-rendering:geometricPrecision; image-rendering:optimizeQuality; fill-rule:evenodd; clip-rule:evenodd" xmlns:xlink="http://www.w3.org/1999/xlink">
<g><path style="opacity:0.969" fill="#020202" d="M 82.5,-0.5 C 89.5,-0.5 96.5,-0.5 103.5,-0.5C 147.703,7.20272 173.87,33.2027 182,77.5C 182.667,85.1667 182.667,92.8333 182,100.5C 180.645,107.902 179.311,115.235 178,122.5C 184.5,129 191,135.5 197.5,142C 198.167,142.667 198.833,142.667 199.5,142C 208.756,129.436 220.423,126.436 234.5,133C 236,134.5 237.5,136 239,137.5C 247.833,128.667 256.667,119.833 265.5,111C 285.72,99.8487 302.886,103.349 317,121.5C 320.555,128.388 322.222,135.721 322,143.5C 340.79,142.745 353.123,151.412 359,169.5C 359.79,175.552 359.624,181.552 358.5,187.5C 380.474,191.805 391.474,205.138 391.5,227.5C 414.734,230.232 425.234,243.232 423,266.5C 421.81,271.213 419.81,275.547 417,279.5C 403.667,292.833 390.333,306.167 377,319.5C 376.333,320.167 376.333,320.833 377,321.5C 381.045,325.881 385.378,329.881 390,333.5C 435.274,319.924 471.608,332.257 499,370.5C 505.21,381.221 509.377,392.555 511.5,404.5C 511.5,413.5 511.5,422.5 511.5,431.5C 510.36,439.065 507.36,445.899 502.5,452C 495.079,455.758 488.079,455.091 481.5,450C 465.805,433.971 449.805,418.304 433.5,403C 415.01,396.737 404.01,403.07 400.5,422C 400.875,426.88 402.375,431.38 405,435.5C 420.333,450.833 435.667,466.167 451,481.5C 458.8,493.767 455.966,502.6 442.5,508C 436.735,509.386 431.069,510.552 425.5,511.5C 420.5,511.5 415.5,511.5 410.5,511.5C 378.031,507.511 353.865,491.178 338,462.5C 336.663,457.916 337.829,454.249 341.5,451.5C 344.32,451.248 346.986,451.748 349.5,453C 369.783,488.476 399.783,501.476 439.5,492C 425.58,477.814 411.413,463.981 397,450.5C 382.599,432.587 381.933,414.254 395,395.5C 406.526,385.576 419.692,382.742 434.5,387C 440.449,388.973 445.783,391.973 450.5,396C 464.529,409.695 478.196,423.695 491.5,438C 492.744,438.456 493.577,437.956 494,436.5C 494.953,433.568 495.453,430.568 495.5,427.5C 498.318,384.69 478.985,357.19 437.5,345C 421.284,341.782 405.618,343.448 390.5,350C 387.697,350.755 385.03,350.422 382.5,349C 375.167,341.667 367.833,334.333 360.5,327C 334.398,325.306 323.065,311.473 326.5,285.5C 306.096,283.428 295.096,272.094 293.5,251.5C 282.053,253.621 271.053,252.287 260.5,247.5C 251.789,244.286 243.956,239.619 237,233.5C 235.582,243.833 233.248,253.833 230,263.5C 270.469,303.969 310.802,344.302 351,384.5C 351.667,386.167 351.667,387.833 351,389.5C 345.283,401.835 342.617,414.835 343,428.5C 341.035,430.55 338.868,432.217 336.5,433.5C 333.213,432.945 330.713,431.278 329,428.5C 328.333,422.167 328.333,415.833 329,409.5C 330.514,402.46 331.848,395.46 333,388.5C 328.167,383.667 323.333,378.833 318.5,374C 311.022,376.55 303.356,378.883 295.5,381C 282.807,381.105 270.14,380.771 257.5,380C 254.328,381.752 251.328,383.752 248.5,386C 231.667,402.833 214.833,419.667 198,436.5C 199.319,442.36 199.653,448.36 199,454.5C 198.241,457.785 196.908,460.785 195,463.5C 180.5,478 166,492.5 151.5,507C 148.185,508.83 144.851,510.33 141.5,511.5C 137.833,511.5 134.167,511.5 130.5,511.5C 127.592,510.046 124.592,508.546 121.5,507C 85.639,470.805 49.4723,434.972 13,399.5C 4.33776,389.201 3.33776,378.201 10,366.5C 25.5602,350.271 41.7268,334.771 58.5,320C 65.7936,316.583 72.9603,316.75 80,320.5C 94.6959,306.138 109.029,291.471 123,276.5C 131.054,267.065 137.054,256.398 141,244.5C 142.18,235.55 142.847,226.55 143,217.5C 143.696,212.384 144.863,207.384 146.5,202.5C 138.681,194.181 130.681,186.014 122.5,178C 115.235,179.311 107.902,180.645 100.5,182C 64.2006,185.58 35.3673,172.747 14,143.5C 6.87518,131.94 2.04184,119.607 -0.5,106.5C -0.5,97.5 -0.5,88.5 -0.5,79.5C 0.604526,71.3783 3.93786,64.2116 9.5,58C 16.1564,54.8583 22.4897,55.525 28.5,60C 43.8333,75.3333 59.1667,90.6667 74.5,106C 83.8333,112 93.1667,112 102.5,106C 111.354,96.7269 112.521,86.5603 106,75.5C 91.6667,59.8333 76.6667,44.8333 61,30.5C 52.5654,19.8613 54.0654,11.0279 65.5,4C 71.175,1.99977 76.8417,0.499767 82.5,-0.5 Z"/></g>
<g><path style="opacity:1" fill="#97ccdd" d="M 174.5,167.5 C 165.925,157.421 156.758,147.754 147,138.5C 146.362,137.391 145.862,136.225 145.5,135C 161.955,93.4438 151.955,60.1104 115.5,35C 103.645,28.4368 90.9782,24.6034 77.5,23.5C 75.5212,22.1879 73.8545,20.5212 72.5,18.5C 110.912,9.61792 140.079,22.2846 160,56.5C 169.962,78.1555 169.962,99.8222 160,121.5C 159.333,122.833 159.333,124.167 160,125.5C 168.984,135.318 178.151,144.985 187.5,154.5C 183.479,159.188 179.146,163.521 174.5,167.5 Z"/></g>
<g><path style="opacity:1" fill="#bfe8f2" d="M 77.5,23.5 C 90.9782,24.6034 103.645,28.4368 115.5,35C 151.955,60.1104 161.955,93.4438 145.5,135C 145.862,136.225 146.362,137.391 147,138.5C 156.758,147.754 165.925,157.421 174.5,167.5C 168.188,174.479 161.521,181.146 154.5,187.5C 144.985,178.151 135.318,168.984 125.5,160C 124.167,159.333 122.833,159.333 121.5,160C 85.156,174.705 54.3227,167.205 29,137.5C 14.6427,117.364 11.1427,95.6969 18.5,72.5C 33.9861,87.4859 49.3194,102.653 64.5,118C 79.8977,127.647 95.5644,127.98 111.5,119C 127.119,103.42 129.619,85.9196 119,66.5C 105.327,51.9942 91.4938,37.6608 77.5,23.5 Z"/></g>
<g><path style="opacity:1" fill="#fbcea1" d="M 295.5,122.5 C 296.538,130.704 295.038,138.371 291,145.5C 283.632,153.036 276.132,160.369 268.5,167.5C 262.035,161.536 255.702,155.369 249.5,149C 258.53,139.636 267.863,130.636 277.5,122C 280.207,120.943 283.04,120.443 286,120.5C 289.477,120.328 292.644,120.994 295.5,122.5 Z"/></g>
<g><path style="opacity:1" fill="#fab983" d="M 295.5,122.5 C 306.636,129.42 309.136,138.754 303,150.5C 294.833,158.667 286.667,166.833 278.5,175C 274.284,173.986 270.951,171.486 268.5,167.5C 276.132,160.369 283.632,153.036 291,145.5C 295.038,138.371 296.538,130.704 295.5,122.5 Z"/></g>
<g><path style="opacity:1" fill="#fee4c0" d="M 293.5,214.5 C 288.581,216.964 283.248,217.964 277.5,217.5C 263.346,217.259 250.679,212.759 239.5,204C 233.621,198.615 227.621,193.449 221.5,188.5C 217.23,190.372 215.563,193.705 216.5,198.5C 212.83,201.205 211.663,204.872 213,209.5C 221.123,218.282 223.79,228.615 221,240.5C 218.003,253.479 211.67,264.479 202,273.5C 201.794,282.618 205.961,285.451 214.5,282C 215.928,279.815 217.595,277.815 219.5,276C 220.167,275.333 220.833,275.333 221.5,276C 244.035,298.368 266.368,320.868 288.5,343.5C 278.248,349.312 267.248,351.478 255.5,350C 248.236,348.341 240.903,347.675 233.5,348C 230.833,349.333 228.167,350.667 225.5,352C 206.862,369.638 188.528,387.638 170.5,406C 169.552,406.483 168.552,406.649 167.5,406.5C 160.702,400.203 154.035,393.703 147.5,387C 144.408,386.264 141.408,386.431 138.5,387.5C 133.833,383.167 129.167,378.833 124.5,374.5C 126.097,371.681 126.597,368.681 126,365.5C 114.5,354 103,342.5 91.5,331C 104,318.5 116.5,306 129,293.5C 135.487,285.858 141.487,277.858 147,269.5C 150.98,262.558 153.98,255.224 156,247.5C 157.786,235.208 159.119,222.875 160,210.5C 161.806,205.554 164.139,200.888 167,196.5C 183.833,179.667 200.667,162.833 217.5,146C 220.167,144 222.833,144 225.5,146C 248.368,168.701 271.035,191.535 293.5,214.5 Z"/></g>
<g><path style="opacity:1" fill="#fbcea1" d="M 333.5,160.5 C 334.349,168.022 332.849,175.022 329,181.5C 321.352,189.314 313.518,196.981 305.5,204.5C 299.869,199.37 294.369,194.036 289,188.5C 288.685,187.092 289.018,185.759 290,184.5C 298.47,177.031 306.637,169.198 314.5,161C 320.816,157.953 327.149,157.786 333.5,160.5 Z"/></g>
<g><path style="opacity:1" fill="#fbb983" d="M 333.5,160.5 C 345.091,167.718 347.591,177.385 341,189.5C 332.333,198.167 323.667,206.833 315,215.5C 311.998,211.666 308.831,208 305.5,204.5C 313.518,196.981 321.352,189.314 329,181.5C 332.849,175.022 334.349,168.022 333.5,160.5 Z"/></g>
<g><path style="opacity:1" fill="#facea1" d="M 293.5,214.5 C 307.493,224.403 306.16,231.903 289.5,237C 274.174,237.891 260.508,233.558 248.5,224C 240.5,216 232.5,208 224.5,200C 221.986,198.748 219.32,198.248 216.5,198.5C 215.563,193.705 217.23,190.372 221.5,188.5C 227.621,193.449 233.621,198.615 239.5,204C 250.679,212.759 263.346,217.259 277.5,217.5C 283.248,217.964 288.581,216.964 293.5,214.5 Z"/></g>
<g><path style="opacity:1" fill="#facea0" d="M 362.5,205.5 C 364.031,214.566 361.864,222.566 356,229.5C 346.167,239.333 336.333,249.167 326.5,259C 322.92,261.956 318.92,264.123 314.5,265.5C 308.854,260.041 307.02,253.375 309,245.5C 310.08,243.004 311.414,240.67 313,238.5C 323.167,228.333 333.333,218.167 343.5,208C 349.504,203.317 355.837,202.484 362.5,205.5 Z"/></g>
<g><path style="opacity:1" fill="#fab882" d="M 362.5,205.5 C 368.719,207.217 372.886,211.217 375,217.5C 376.562,224.507 375.229,230.841 371,236.5C 360.833,246.667 350.667,256.833 340.5,267C 331.23,273.497 322.563,272.997 314.5,265.5C 318.92,264.123 322.92,261.956 326.5,259C 336.333,249.167 346.167,239.333 356,229.5C 361.864,222.566 364.031,214.566 362.5,205.5 Z"/></g>
<g><path style="opacity:1" fill="#bfe8f1" d="M 260.5,247.5 C 298.58,288.084 336.913,328.584 375.5,369C 383.083,369.18 390.417,367.847 397.5,365C 442.685,359.008 475.185,376.508 495,417.5C 495.498,420.817 495.665,424.15 495.5,427.5C 495.453,430.568 494.953,433.568 494,436.5C 493.577,437.956 492.744,438.456 491.5,438C 478.196,423.695 464.529,409.695 450.5,396C 445.783,391.973 440.449,388.973 434.5,387C 419.692,382.742 406.526,385.576 395,395.5C 381.933,414.254 382.599,432.587 397,450.5C 411.413,463.981 425.58,477.814 439.5,492C 399.783,501.476 369.783,488.476 349.5,453C 346.986,451.748 344.32,451.248 341.5,451.5C 339.03,445.752 337.363,439.752 336.5,433.5C 338.868,432.217 341.035,430.55 343,428.5C 342.617,414.835 345.283,401.835 351,389.5C 351.667,387.833 351.667,386.167 351,384.5C 310.802,344.302 270.469,303.969 230,263.5C 233.248,253.833 235.582,243.833 237,233.5C 243.956,239.619 251.789,244.286 260.5,247.5 Z"/></g>
<g><path style="opacity:1" fill="#fccfa1" d="M 399.5,245.5 C 399.343,251.122 397.51,256.122 394,260.5C 380.833,273.667 367.667,286.833 354.5,300C 351.274,302.575 347.607,304.075 343.5,304.5C 342.034,303.653 341.2,302.32 341,300.5C 339.932,295.232 340.599,290.232 343,285.5C 356.167,272.333 369.333,259.167 382.5,246C 388.195,242.89 393.862,242.723 399.5,245.5 Z"/></g>
<g><path style="opacity:1" fill="#fbb983" d="M 399.5,245.5 C 409.26,251.457 411.094,259.457 405,269.5C 392.167,282.333 379.333,295.167 366.5,308C 357.592,313.599 349.925,312.433 343.5,304.5C 347.607,304.075 351.274,302.575 354.5,300C 367.667,286.833 380.833,273.667 394,260.5C 397.51,256.122 399.343,251.122 399.5,245.5 Z"/></g>
<g><path style="opacity:1" fill="#97cddd" d="M 260.5,247.5 C 271.053,252.287 282.053,253.621 293.5,251.5C 295.096,272.094 306.096,283.428 326.5,285.5C 323.065,311.473 334.398,325.306 360.5,327C 367.833,334.333 375.167,341.667 382.5,349C 385.03,350.422 387.697,350.755 390.5,350C 405.618,343.448 421.284,341.782 437.5,345C 478.985,357.19 498.318,384.69 495.5,427.5C 495.665,424.15 495.498,420.817 495,417.5C 475.185,376.508 442.685,359.008 397.5,365C 390.417,367.847 383.083,369.18 375.5,369C 336.913,328.584 298.58,288.084 260.5,247.5 Z"/></g>
<g><path style="opacity:1" fill="#6ad8e6" d="M 124.5,374.5 C 129.167,378.833 133.833,383.167 138.5,387.5C 136.132,391.052 135.965,394.719 138,398.5C 145.702,406.035 153.202,413.702 160.5,421.5C 160.159,424.516 158.993,427.182 157,429.5C 143.833,442.667 130.667,455.833 117.5,469C 115.133,470.845 112.467,472.011 109.5,472.5C 80.5347,444.035 51.7013,415.368 23,386.5C 21.5432,383.634 21.2099,380.634 22,377.5C 35.4707,363.029 49.304,348.862 63.5,335C 67.1667,333 70.8333,333 74.5,335C 87.5,348 100.5,361 113.5,374C 117.09,375.822 120.757,375.989 124.5,374.5 Z"/></g>
<g><path style="opacity:1" fill="#fccfa1" d="M 288.5,343.5 C 294.631,349.13 300.631,354.964 306.5,361C 301.637,363.066 296.637,364.732 291.5,366C 282.079,366.156 272.746,365.322 263.5,363.5C 258.189,363.326 253.189,364.492 248.5,367C 244.656,369.422 240.99,372.089 237.5,375C 220.833,391.667 204.167,408.333 187.5,425C 186.038,424.937 184.705,424.271 183.5,423C 177.991,417.658 172.658,412.158 167.5,406.5C 168.552,406.649 169.552,406.483 170.5,406C 188.528,387.638 206.862,369.638 225.5,352C 228.167,350.667 230.833,349.333 233.5,348C 240.903,347.675 248.236,348.341 255.5,350C 267.248,351.478 278.248,349.312 288.5,343.5 Z"/></g>
<g><path style="opacity:1" fill="#00c6db" d="M 160.5,421.5 C 168.132,428.631 175.632,435.964 183,443.5C 184.879,446.8 184.879,450.134 183,453.5C 169.5,467 156,480.5 142.5,494C 139.001,496.704 135.334,497.037 131.5,495C 123.964,487.632 116.631,480.132 109.5,472.5C 112.467,472.011 115.133,470.845 117.5,469C 130.667,455.833 143.833,442.667 157,429.5C 158.993,427.182 160.159,424.516 160.5,421.5 Z"/></g>
</svg>
