<?xml version="1.0" encoding="UTF-8"?>
<!DOCTYPE svg PUBLIC "-//W3C//DTD SVG 1.1//EN" "http://www.w3.org/Graphics/SVG/1.1/DTD/svg11.dtd">
<svg xmlns="http://www.w3.org/2000/svg" version="1.1" width="512px" height="512px" style="shape-rendering:geometricPrecision; text-rendering:geometricPrecision; image-rendering:optimizeQuality; fill-rule:evenodd; clip-rule:evenodd" xmlns:xlink="http://www.w3.org/1999/xlink">
<g><path style="opacity:0.98" fill="#020101" d="M 266.5,-0.5 C 281.5,-0.5 296.5,-0.5 311.5,-0.5C 315.995,1.31322 319.662,4.31322 322.5,8.5C 370.367,27.8461 394.7,63.5128 395.5,115.5C 415.509,121.849 422.676,135.182 417,155.5C 414.412,159.676 411.579,163.676 408.5,167.5C 415.639,195.192 405.139,211.525 377,216.5C 370.394,249.942 351.227,272.942 319.5,285.5C 318.614,286.325 318.281,287.325 318.5,288.5C 331.964,290.932 344.797,295.266 357,301.5C 361.931,298.752 366.764,298.919 371.5,302C 383,312.833 394.5,323.667 406,334.5C 407.153,337.711 407.82,341.044 408,344.5C 418.26,358.124 426.927,372.791 434,388.5C 448.471,425.579 463.137,462.579 478,499.5C 479.227,504.062 478.393,508.062 475.5,511.5C 472.5,511.5 469.5,511.5 466.5,511.5C 464.422,509.61 463.089,507.276 462.5,504.5C 449.167,468.672 435.334,433.006 421,397.5C 415.029,384.222 408.029,371.555 400,359.5C 399.107,358.289 398.274,358.289 397.5,359.5C 392.813,369.266 388.147,378.933 383.5,388.5C 381.833,388.5 380.167,388.5 378.5,388.5C 373.799,386.766 371.965,383.432 373,378.5C 376.933,365.134 383.099,352.967 391.5,342C 386.99,337.591 382.323,333.425 377.5,329.5C 374.168,325.336 370.335,321.669 366,318.5C 364.371,329.789 363.204,341.122 362.5,352.5C 361.996,358.218 361.162,363.884 360,369.5C 358.64,372.023 356.807,374.023 354.5,375.5C 349.568,376.434 344.568,376.434 339.5,375.5C 339.5,393.833 339.5,412.167 339.5,430.5C 343.167,430.5 346.833,430.5 350.5,430.5C 355.833,430.5 361.167,430.5 366.5,430.5C 366.334,424.491 366.501,418.491 367,412.5C 368.674,408.911 371.507,407.245 375.5,407.5C 378.148,407.738 379.982,409.072 381,411.5C 381.168,442.669 381.668,473.669 382.5,504.5C 381.937,507.295 380.604,509.628 378.5,511.5C 375.833,511.5 373.167,511.5 370.5,511.5C 367.905,509.986 366.571,507.652 366.5,504.5C 366.5,494.5 366.5,484.5 366.5,474.5C 360.833,474.5 355.167,474.5 349.5,474.5C 331.833,474.5 314.167,474.5 296.5,474.5C 296.5,484.5 296.5,494.5 296.5,504.5C 296.85,507.453 295.85,509.787 293.5,511.5C 290.5,511.5 287.5,511.5 284.5,511.5C 282.15,509.787 281.15,507.453 281.5,504.5C 281.5,494.5 281.5,484.5 281.5,474.5C 258.167,474.5 234.833,474.5 211.5,474.5C 211.5,484.5 211.5,494.5 211.5,504.5C 211.429,507.652 210.095,509.986 207.5,511.5C 204.833,511.5 202.167,511.5 199.5,511.5C 197.396,509.628 196.063,507.295 195.5,504.5C 196.664,472.669 196.831,440.669 196,408.5C 194.394,390.517 188.894,373.85 179.5,358.5C 171.658,369.509 164.824,381.176 159,393.5C 144.003,430.326 129.503,467.326 115.5,504.5C 114.937,507.295 113.604,509.628 111.5,511.5C 108.833,511.5 106.167,511.5 103.5,511.5C 101.856,510.684 100.69,509.35 100,507.5C 99.4572,504.132 99.6239,500.799 100.5,497.5C 80.1639,497.667 59.8306,497.5 39.5,497C 37.3762,495.878 35.5429,494.378 34,492.5C 32.3593,473.59 32.0259,454.59 33,435.5C 34.5088,433.081 36.6755,432.081 39.5,432.5C 43.0897,432.544 45.5897,434.211 47,437.5C 47.4999,452.496 47.6666,467.496 47.5,482.5C 67.7425,482.827 87.9092,482.493 108,481.5C 120.196,451.246 132.196,420.913 144,390.5C 148.527,381.447 153.027,372.447 157.5,363.5C 161.417,357.735 165.584,352.068 170,346.5C 170.031,342.232 171.031,338.232 173,334.5C 177.699,329.466 182.699,324.8 188,320.5C 188.5,303.837 188.667,287.17 188.5,270.5C 166.66,270.169 144.994,270.503 123.5,271.5C 123.984,301.921 123.484,332.254 122,362.5C 121.097,363.701 119.931,364.535 118.5,365C 94.8357,365.5 71.169,365.667 47.5,365.5C 47.6666,380.17 47.4999,394.837 47,409.5C 45.5897,412.789 43.0897,414.456 39.5,414.5C 36.4392,414.556 34.2725,413.222 33,410.5C 32.3333,384.167 32.3333,357.833 33,331.5C 37.6667,326.167 42.3333,326.167 47,331.5C 48.3173,337.757 48.8173,344.091 48.5,350.5C 56.8333,350.5 65.1667,350.5 73.5,350.5C 73.5,346.833 73.5,343.167 73.5,339.5C 66.5099,341.162 62.5099,338.495 61.5,331.5C 61.5559,328.889 62.5559,326.722 64.5,325C 67.3926,323.851 70.3926,323.351 73.5,323.5C 73.5,319.167 73.5,314.833 73.5,310.5C 64.3553,311.376 60.5219,307.376 62,298.5C 64.9442,294.886 68.7775,293.553 73.5,294.5C 73.5,289.833 73.5,285.167 73.5,280.5C 66.6962,281.779 62.6962,279.112 61.5,272.5C 62.6962,265.888 66.6962,263.221 73.5,264.5C 73.3336,255.494 73.5002,246.494 74,237.5C 75.5286,234.484 78.0286,233.151 81.5,233.5C 85.6089,233.438 88.1089,235.438 89,239.5C 89.4997,247.827 89.6664,256.16 89.5,264.5C 95.5,264.5 101.5,264.5 107.5,264.5C 107.334,255.827 107.5,247.16 108,238.5C 110.435,233.776 114.269,232.276 119.5,234C 121,234.833 122.167,236 123,237.5C 123.499,243.491 123.666,249.491 123.5,255.5C 145.167,255.5 166.833,255.5 188.5,255.5C 188.08,248.716 188.58,242.05 190,235.5C 194.665,232.544 198.998,232.878 203,236.5C 204.302,258.77 204.968,281.103 205,303.5C 209.913,299.438 215.246,298.771 221,301.5C 233.486,295.06 246.653,290.727 260.5,288.5C 260.5,287.5 260.5,286.5 260.5,285.5C 227.246,273.68 207.58,250.347 201.5,215.5C 188.213,215.44 178.046,209.773 171,198.5C 165.783,188.215 165.283,177.715 169.5,167C 158.376,155.171 156.542,142.004 164,127.5C 168.626,121.105 174.792,117.105 182.5,115.5C 182.956,72.7338 200.956,39.9005 236.5,17C 242.589,13.7483 248.922,11.0816 255.5,9C 258.13,4.53052 261.796,1.36385 266.5,-0.5 Z M 89.5,280.5 C 95.5,280.5 101.5,280.5 107.5,280.5C 107.5,285.167 107.5,289.833 107.5,294.5C 101.5,294.5 95.5,294.5 89.5,294.5C 89.5,289.833 89.5,285.167 89.5,280.5 Z M 89.5,310.5 C 95.5,310.5 101.5,310.5 107.5,310.5C 107.5,314.833 107.5,319.167 107.5,323.5C 101.5,323.5 95.5,323.5 89.5,323.5C 89.5,319.167 89.5,314.833 89.5,310.5 Z M 89.5,339.5 C 95.5,339.5 101.5,339.5 107.5,339.5C 107.5,343.167 107.5,346.833 107.5,350.5C 101.5,350.5 95.5,350.5 89.5,350.5C 89.5,346.833 89.5,343.167 89.5,339.5 Z"/></g>
<g><path style="opacity:1" fill="#f89726" d="M 286.5,14.5 C 286.052,37.8776 286.552,61.2109 288,84.5C 289.726,88.9531 291.726,93.2864 294,97.5C 300.25,104.342 307.083,110.342 314.5,115.5C 291.661,115.831 268.994,115.497 246.5,114.5C 258.207,106.947 265.373,96.2801 268,82.5C 268.333,60.5 268.667,38.5 269,16.5C 269.5,16 270,15.5 270.5,15C 275.823,14.5006 281.156,14.334 286.5,14.5 Z"/></g>
<g><path style="opacity:1" fill="#f88723" d="M 286.5,14.5 C 293.508,14.3337 300.508,14.5004 307.5,15C 308,15.5 308.5,16 309,16.5C 309.076,39.532 309.742,62.532 311,85.5C 314.166,97.8213 320.999,107.488 331.5,114.5C 326.025,115.489 320.358,115.822 314.5,115.5C 307.083,110.342 300.25,104.342 294,97.5C 291.726,93.2864 289.726,88.9531 288,84.5C 286.552,61.2109 286.052,37.8776 286.5,14.5 Z"/></g>
<g><path style="opacity:1" fill="#fab52c" d="M 344.5,105.5 C 344.727,83.9196 338.06,64.5862 324.5,47.5C 324.17,40.4684 324.503,33.4684 325.5,26.5C 354.437,40.2779 371.937,62.9446 378,94.5C 378.5,101.492 378.666,108.492 378.5,115.5C 371.159,115.666 363.826,115.5 356.5,115C 352.249,112.055 348.249,108.888 344.5,105.5 Z"/></g>
<g><path style="opacity:1" fill="#fac639" d="M 251.5,26.5 C 252.832,35.4752 253.498,44.8086 253.5,54.5C 253.333,63.8333 253.167,73.1667 253,82.5C 250.769,89.3953 246.936,95.2286 241.5,100C 234.833,105 228.167,110 221.5,115C 214.174,115.5 206.841,115.666 199.5,115.5C 198.594,74.9545 215.928,45.2879 251.5,26.5 Z"/></g>
<g><path style="opacity:1" fill="#fac539" d="M 324.5,47.5 C 338.06,64.5862 344.727,83.9196 344.5,105.5C 334.522,100.352 328.022,92.3524 325,81.5C 324.5,70.1716 324.333,58.8382 324.5,47.5 Z"/></g>
<g><path style="opacity:1" fill="#54320c" d="M 246.5,114.5 C 268.994,115.497 291.661,115.831 314.5,115.5C 320.358,115.822 326.025,115.489 331.5,114.5C 332.043,114.56 332.376,114.893 332.5,115.5C 303.5,116.833 274.5,116.833 245.5,115.5C 245.624,114.893 245.957,114.56 246.5,114.5 Z"/></g>
<g><path style="opacity:1" fill="#fbdb44" d="M 184.5,131.5 C 245.504,131.167 306.504,131.5 367.5,132.5C 371.5,140.167 371.5,147.833 367.5,155.5C 333.669,156.167 300.002,156.833 266.5,157.5C 263.092,158.578 261.092,160.911 260.5,164.5C 254.5,164.5 248.5,164.5 242.5,164.5C 242.256,161.737 240.923,159.571 238.5,158C 220.5,157.667 202.5,157.333 184.5,157C 172.921,150.604 171.588,142.604 180.5,133C 181.745,132.209 183.078,131.709 184.5,131.5 Z"/></g>
<g><path style="opacity:1" fill="#e5b836" d="M 184.5,131.5 C 253.999,130.335 323.665,130.168 393.5,131C 404.148,135.937 406.315,143.437 400,153.5C 397.913,154.794 395.746,155.961 393.5,157C 351.168,157.5 308.835,157.667 266.5,157.5C 300.002,156.833 333.669,156.167 367.5,155.5C 371.5,147.833 371.5,140.167 367.5,132.5C 306.504,131.5 245.504,131.167 184.5,131.5 Z"/></g>
<g><path style="opacity:1" fill="#fdccbe" d="M 242.5,164.5 C 248.5,164.5 254.5,164.5 260.5,164.5C 261.026,167.707 262.692,170.207 265.5,172C 290.164,172.5 314.831,172.667 339.5,172.5C 342.805,197.882 338.638,221.882 327,244.5C 318.829,257.509 307.996,267.509 294.5,274.5C 254.125,274.996 228.292,255.663 217,216.5C 215.627,201.873 215.127,187.207 215.5,172.5C 222.841,172.666 230.174,172.5 237.5,172C 240.789,170.59 242.456,168.09 242.5,164.5 Z"/></g>
<g><path style="opacity:1" fill="#faae9e" d="M 184.5,172.5 C 189.833,172.5 195.167,172.5 200.5,172.5C 200.5,181.833 200.5,191.167 200.5,200.5C 184.786,197.069 179.452,187.736 184.5,172.5 Z"/></g>
<g><path style="opacity:1" fill="#fbaf9f" d="M 339.5,172.5 C 347.167,172.5 354.833,172.5 362.5,172.5C 362.667,186.171 362.5,199.837 362,213.5C 353.548,249.455 331.048,269.789 294.5,274.5C 307.996,267.509 318.829,257.509 327,244.5C 338.638,221.882 342.805,197.882 339.5,172.5 Z"/></g>
<g><path style="opacity:1" fill="#91574d" d="M 393.5,172.5 C 388.5,172.5 383.5,172.5 378.5,172.5C 378.5,181.5 378.5,190.5 378.5,199.5C 379.5,199.5 380.5,199.5 381.5,199.5C 380.432,200.434 379.099,200.768 377.5,200.5C 377.5,190.833 377.5,181.167 377.5,171.5C 383.026,171.179 388.36,171.512 393.5,172.5 Z"/></g>
<g><path style="opacity:1" fill="#f39381" d="M 393.5,172.5 C 396.843,180.473 395.843,187.973 390.5,195C 388.027,197.547 385.027,199.047 381.5,199.5C 380.5,199.5 379.5,199.5 378.5,199.5C 378.5,190.5 378.5,181.5 378.5,172.5C 383.5,172.5 388.5,172.5 393.5,172.5 Z"/></g>
<g><path style="opacity:1" fill="#0b0908" d="M 247.5,181.5 C 257,181.17 260.167,185.503 257,194.5C 252.162,200.036 247.829,199.703 244,193.5C 242.593,188.556 243.759,184.556 247.5,181.5 Z"/></g>
<g><path style="opacity:1" fill="#070605" d="M 324.5,181.5 C 333.886,181.071 337.053,185.404 334,194.5C 329.667,199.833 325.333,199.833 321,194.5C 320.333,191.167 320.333,187.833 321,184.5C 322.145,183.364 323.312,182.364 324.5,181.5 Z"/></g>
<g><path style="opacity:1" fill="#070504" d="M 285.5,190.5 C 289.909,189.618 293.409,190.952 296,194.5C 296.667,200.167 296.667,205.833 296,211.5C 293.224,216.092 289.391,217.258 284.5,215C 283.107,213.829 282.273,212.329 282,210.5C 281.333,205.5 281.333,200.5 282,195.5C 282.997,193.677 284.164,192.01 285.5,190.5 Z"/></g>
<g><path style="opacity:1" fill="#080606" d="M 265.5,225.5 C 267.199,225.34 268.866,225.506 270.5,226C 275.727,230.863 281.894,233.697 289,234.5C 291.591,234.435 294.091,233.935 296.5,233C 301.038,230.437 305.538,227.937 310,225.5C 316.796,227.093 318.796,231.093 316,237.5C 302.829,249.834 287.996,252.334 271.5,245C 268.061,242.861 264.894,240.361 262,237.5C 259.458,232.361 260.624,228.361 265.5,225.5 Z"/></g>
<g><path style="opacity:0.999" fill="#dfd2cd" d="M 123.5,271.5 C 134.833,271.5 146.167,271.5 157.5,271.5C 157.5,302.167 157.5,332.833 157.5,363.5C 153.027,372.447 148.527,381.447 144,390.5C 132.196,420.913 120.196,451.246 108,481.5C 87.9092,482.493 67.7425,482.827 47.5,482.5C 47.6666,467.496 47.4999,452.496 47,437.5C 45.5897,434.211 43.0897,432.544 39.5,432.5C 39.5,426.5 39.5,420.5 39.5,414.5C 43.0897,414.456 45.5897,412.789 47,409.5C 47.4999,394.837 47.6666,380.17 47.5,365.5C 71.169,365.667 94.8357,365.5 118.5,365C 119.931,364.535 121.097,363.701 122,362.5C 123.484,332.254 123.984,301.921 123.5,271.5 Z"/></g>
<g><path style="opacity:1" fill="#b6a9a9" d="M 123.5,271.5 C 144.994,270.503 166.66,270.169 188.5,270.5C 188.667,287.17 188.5,303.837 188,320.5C 182.699,324.8 177.699,329.466 173,334.5C 171.031,338.232 170.031,342.232 170,346.5C 165.584,352.068 161.417,357.735 157.5,363.5C 157.5,332.833 157.5,302.167 157.5,271.5C 146.167,271.5 134.833,271.5 123.5,271.5 Z"/></g>
<g><path style="opacity:1" fill="#f29280" d="M 275.5,289.5 C 284.5,289.5 293.5,289.5 302.5,289.5C 302.075,296.615 302.575,303.615 304,310.5C 306.559,313.349 309.726,314.183 313.5,313C 316.302,310.895 317.635,308.061 317.5,304.5C 325.087,305.751 332.42,307.917 339.5,311C 323.224,324.615 306.391,337.448 289,349.5C 271.914,337.036 255.081,324.202 238.5,311C 245.459,307.513 252.792,305.347 260.5,304.5C 261.27,313.096 265.603,315.596 273.5,312C 274.126,311.25 274.626,310.416 275,309.5C 275.5,302.842 275.666,296.175 275.5,289.5 Z"/></g>
<g><path style="opacity:1" fill="#f89726" d="M 236.5,375.5 C 238.487,393.47 239.154,411.803 238.5,430.5C 229.5,430.5 220.5,430.5 211.5,430.5C 213.333,397.983 205,368.483 186.5,342C 195,334.167 203.5,326.333 212,318.5C 214.456,334.396 216.123,350.396 217,366.5C 220.361,375.985 226.861,378.985 236.5,375.5 Z"/></g>
<g><path style="opacity:1" fill="#ef9125" d="M 377.5,329.5 C 372.686,336.448 368.352,343.782 364.5,351.5C 364.043,352.298 363.376,352.631 362.5,352.5C 363.204,341.122 364.371,329.789 366,318.5C 370.335,321.669 374.168,325.336 377.5,329.5 Z"/></g>
<g><path style="opacity:1" fill="#61b5f6" d="M 227.5,321.5 C 241.803,332.658 256.137,343.825 270.5,355C 257.519,357.03 244.519,358.863 231.5,360.5C 230.628,347.448 229.295,334.448 227.5,321.5 Z"/></g>
<g><path style="opacity:1" fill="#61b3f4" d="M 348.5,322.5 C 349.497,322.47 350.164,322.97 350.5,324C 349.199,336.172 347.866,348.339 346.5,360.5C 333.418,359.32 320.418,357.487 307.5,355C 321.6,344.629 335.267,333.795 348.5,322.5 Z"/></g>
<g><path style="opacity:1" fill="#f68724" d="M 377.5,329.5 C 382.323,333.425 386.99,337.591 391.5,342C 383.099,352.967 376.933,365.134 373,378.5C 371.965,383.432 373.799,386.766 378.5,388.5C 376.861,394.699 375.861,401.033 375.5,407.5C 371.507,407.245 368.674,408.911 367,412.5C 366.501,418.491 366.334,424.491 366.5,430.5C 361.167,430.5 355.833,430.5 350.5,430.5C 349.552,411.966 350.885,393.632 354.5,375.5C 356.807,374.023 358.64,372.023 360,369.5C 361.162,363.884 361.996,358.218 362.5,352.5C 363.376,352.631 364.043,352.298 364.5,351.5C 368.352,343.782 372.686,336.448 377.5,329.5 Z"/></g>
<g><path style="opacity:1" fill="#30a5f9" d="M 462.5,504.5 C 451.167,504.5 439.833,504.5 428.5,504.5C 413.879,465.631 398.879,426.964 383.5,388.5C 388.147,378.933 392.813,369.266 397.5,359.5C 398.274,358.289 399.107,358.289 400,359.5C 408.029,371.555 415.029,384.222 421,397.5C 435.334,433.006 449.167,468.672 462.5,504.5 Z"/></g>
<g><path style="opacity:0.994" fill="#63b7f9" d="M 195.5,504.5 C 168.833,504.5 142.167,504.5 115.5,504.5C 129.503,467.326 144.003,430.326 159,393.5C 164.824,381.176 171.658,369.509 179.5,358.5C 188.894,373.85 194.394,390.517 196,408.5C 196.831,440.669 196.664,472.669 195.5,504.5 Z"/></g>
<g><path style="opacity:1" fill="#f59526" d="M 276.5,368.5 C 278.167,368.5 279.833,368.5 281.5,368.5C 281.5,389.167 281.5,409.833 281.5,430.5C 272.167,430.5 262.833,430.5 253.5,430.5C 253.5,411.167 253.5,391.833 253.5,372.5C 261.346,371.471 269.013,370.138 276.5,368.5 Z"/></g>
<g><path style="opacity:1" fill="#f89726" d="M 296.5,368.5 C 305.827,369.965 315.16,371.299 324.5,372.5C 324.5,391.833 324.5,411.167 324.5,430.5C 315.167,430.5 305.833,430.5 296.5,430.5C 296.5,409.833 296.5,389.167 296.5,368.5 Z"/></g>
<g><path style="opacity:1" fill="#7d4c13" d="M 236.5,375.5 C 237.209,374.596 238.209,374.263 239.5,374.5C 239.83,393.341 239.497,412.007 238.5,430.5C 239.154,411.803 238.487,393.47 236.5,375.5 Z"/></g>
<g><path style="opacity:1" fill="#fa9826" d="M 354.5,375.5 C 350.885,393.632 349.552,411.966 350.5,430.5C 346.833,430.5 343.167,430.5 339.5,430.5C 339.5,412.167 339.5,393.833 339.5,375.5C 344.568,376.434 349.568,376.434 354.5,375.5 Z"/></g>
<g><path style="opacity:0.991" fill="#62b6f9" d="M 378.5,388.5 C 380.167,388.5 381.833,388.5 383.5,388.5C 398.879,426.964 413.879,465.631 428.5,504.5C 413.167,504.5 397.833,504.5 382.5,504.5C 381.668,473.669 381.168,442.669 381,411.5C 379.982,409.072 378.148,407.738 375.5,407.5C 375.861,401.033 376.861,394.699 378.5,388.5 Z"/></g>
<g><path style="opacity:1" fill="#090808" d="M 74.5,393.5 C 78.9671,393.133 83.3004,393.633 87.5,395C 91.7695,399.709 91.4361,404.042 86.5,408C 81.3822,408.888 76.3822,408.555 71.5,407C 68.1271,401.391 69.1271,396.891 74.5,393.5 Z"/></g>
<g><path style="opacity:1" fill="#0a0909" d="M 85.5,418.5 C 90.6278,418.112 95.6278,418.612 100.5,420C 104.893,425.437 103.893,429.77 97.5,433C 92.4898,434.125 87.8231,433.458 83.5,431C 80.6058,426.299 81.2725,422.132 85.5,418.5 Z"/></g>
<g><path style="opacity:1" fill="#aaa5a2" d="M 366.5,459.5 C 366.5,455.167 366.5,450.833 366.5,446.5C 343.5,446.5 320.5,446.5 297.5,446.5C 297.5,450.833 297.5,455.167 297.5,459.5C 296.514,455.03 296.181,450.363 296.5,445.5C 320.167,445.5 343.833,445.5 367.5,445.5C 367.819,450.363 367.486,455.03 366.5,459.5 Z"/></g>
<g><path style="opacity:1" fill="#ede4e0" d="M 211.5,445.5 C 234.833,445.5 258.167,445.5 281.5,445.5C 281.5,450.167 281.5,454.833 281.5,459.5C 258.167,459.5 234.833,459.5 211.5,459.5C 211.5,454.833 211.5,450.167 211.5,445.5 Z"/></g>
<g><path style="opacity:1" fill="#f1e8e4" d="M 366.5,459.5 C 343.5,459.5 320.5,459.5 297.5,459.5C 297.5,455.167 297.5,450.833 297.5,446.5C 320.5,446.5 343.5,446.5 366.5,446.5C 366.5,450.833 366.5,455.167 366.5,459.5 Z"/></g>
<g><path style="opacity:0.982" fill="#fa9827" d="M 281.5,504.5 C 258.167,504.5 234.833,504.5 211.5,504.5C 211.5,494.5 211.5,484.5 211.5,474.5C 234.833,474.5 258.167,474.5 281.5,474.5C 281.5,484.5 281.5,494.5 281.5,504.5 Z"/></g>
<g><path style="opacity:0.982" fill="#fa9826" d="M 349.5,474.5 C 349.5,484.5 349.5,494.5 349.5,504.5C 331.833,504.5 314.167,504.5 296.5,504.5C 296.5,494.5 296.5,484.5 296.5,474.5C 314.167,474.5 331.833,474.5 349.5,474.5 Z"/></g>
<g><path style="opacity:1" fill="#f98824" d="M 349.5,474.5 C 355.167,474.5 360.833,474.5 366.5,474.5C 366.5,484.5 366.5,494.5 366.5,504.5C 360.833,504.5 355.167,504.5 349.5,504.5C 349.5,494.5 349.5,484.5 349.5,474.5 Z"/></g>
</svg>
