<?xml version="1.0" encoding="UTF-8"?>
<!DOCTYPE svg PUBLIC "-//W3C//DTD SVG 1.1//EN" "http://www.w3.org/Graphics/SVG/1.1/DTD/svg11.dtd">
<svg xmlns="http://www.w3.org/2000/svg" version="1.1" width="512px" height="512px" style="shape-rendering:geometricPrecision; text-rendering:geometricPrecision; image-rendering:optimizeQuality; fill-rule:evenodd; clip-rule:evenodd" xmlns:xlink="http://www.w3.org/1999/xlink">
<g><path style="opacity:0.926" fill="#6fd6f9" d="M 324.5,-0.5 C 325.167,-0.5 325.833,-0.5 326.5,-0.5C 328.322,6.15366 332.656,10.3203 339.5,12C 333,14.5 328.5,19 326,25.5C 323.651,18.9854 319.151,14.6521 312.5,12.5C 318.909,10.3147 322.909,5.98137 324.5,-0.5 Z"/></g>
<g><path style="opacity:0.972" fill="#020202" d="M 485.5,511.5 C 332.167,511.5 178.833,511.5 25.5,511.5C 21.7133,509.203 19.2133,505.869 18,501.5C 14.6227,478.391 24.4561,469.725 47.5,475.5C 44.3608,460.95 49.3608,450.45 62.5,444C 75.4957,443.5 88.4957,443.333 101.5,443.5C 102.842,424.52 104.009,405.52 105,386.5C 106.507,362.492 119.341,349.492 143.5,347.5C 143.333,333.163 143.5,318.829 144,304.5C 144.711,297.455 148.545,293.289 155.5,292C 171.5,291.667 187.5,291.333 203.5,291C 189.777,278.393 181.11,262.893 177.5,244.5C 156.142,241.642 144.475,229.475 142.5,208C 143.061,197.968 146.894,189.468 154,182.5C 154.096,166.461 154.763,150.461 156,134.5C 165.459,99.0423 188.292,78.2089 224.5,72C 237.5,71.3333 250.5,71.3333 263.5,72C 275.483,74.4895 285.483,80.3229 293.5,89.5C 301.146,86.3614 308.979,85.3614 317,86.5C 325.621,54.2151 346.621,36.8818 380,34.5C 407.837,35.9095 427.503,49.2428 439,74.5C 448.517,104.282 441.35,129.115 417.5,149C 399.524,161.127 380.191,163.96 359.5,157.5C 358.335,166.482 358.168,175.482 359,184.5C 368.278,196.392 370.278,209.392 365,223.5C 358.294,236.109 347.794,243.109 333.5,244.5C 329.89,262.893 321.223,278.393 307.5,291C 323.5,291.333 339.5,291.667 355.5,292C 362.455,293.289 366.289,297.455 367,304.5C 367.5,318.829 367.667,333.163 367.5,347.5C 391.659,349.492 404.493,362.492 406,386.5C 407.542,415.881 409.375,445.215 411.5,474.5C 436.16,475.333 460.827,475.833 485.5,476C 491.904,480.017 494.571,485.851 493.5,493.5C 494.478,501.268 491.811,507.268 485.5,511.5 Z M 69.5,453.5 C 79.5056,453.334 89.5056,453.5 99.5,454C 104.389,454.556 107.889,457.056 110,461.5C 111.225,466.085 111.725,470.752 111.5,475.5C 93.5,475.5 75.5,475.5 57.5,475.5C 55.3664,464.445 59.3664,457.111 69.5,453.5 Z"/></g>
<g><path style="opacity:1" fill="#afdf6b" d="M 369.5,45.5 C 401.817,42.7228 422.65,56.7228 432,87.5C 435.031,118.101 422.197,138.601 393.5,149C 361.61,154.144 340.11,141.644 329,111.5C 323.944,77.9215 337.444,55.9215 369.5,45.5 Z"/></g>
<g><path style="opacity:1" fill="#060704" d="M 395.5,73.5 C 410.65,73.4726 416.817,80.806 414,95.5C 404.197,106.304 394.03,116.804 383.5,127C 377.294,130.543 371.294,130.209 365.5,126C 359.333,119.833 353.167,113.667 347,107.5C 340.824,97.0417 342.99,88.875 353.5,83C 362.535,81.1224 369.701,83.9557 375,91.5C 381.138,84.5175 387.971,78.5175 395.5,73.5 Z"/></g>
<g><path style="opacity:1" fill="#744d33" d="M 226.5,81.5 C 237.838,81.3335 249.172,81.5001 260.5,82C 272.122,84.3053 280.955,90.4719 287,100.5C 288.194,101.43 289.527,102.097 291,102.5C 295.108,100.529 299.275,98.6959 303.5,97C 308.155,96.5008 312.821,96.3342 317.5,96.5C 317.859,120.226 327.859,138.559 347.5,151.5C 348.498,159.807 348.831,168.14 348.5,176.5C 343.328,174.665 337.995,173.665 332.5,173.5C 332.665,170.482 332.498,167.482 332,164.5C 331.535,163.069 330.701,161.903 329.5,161C 318.04,159.509 306.707,157.175 295.5,154C 287.695,150.933 280.695,146.599 274.5,141C 270.679,138.859 267.012,139.026 263.5,141.5C 251.418,156.545 235.751,165.378 216.5,168C 205.446,168.505 194.446,168.172 183.5,167C 180.967,168.033 179.301,169.867 178.5,172.5C 173.781,173.338 169.114,174.338 164.5,175.5C 164.333,164.828 164.5,154.161 165,143.5C 171.68,108.987 192.18,88.3207 226.5,81.5 Z"/></g>
<g><path style="opacity:1" fill="#e6edf5" d="M 397.5,83.5 C 403.326,83.157 405.826,85.8236 405,91.5C 395.833,100.667 386.667,109.833 377.5,119C 375.365,119.635 373.365,119.301 371.5,118C 365.301,112.136 359.468,105.969 354,99.5C 353.237,92.9473 356.07,90.7806 362.5,93C 365.833,96.3333 369.167,99.6667 372.5,103C 374.167,103.667 375.833,103.667 377.5,103C 384.062,96.2699 390.729,89.7699 397.5,83.5 Z"/></g>
<g><path style="opacity:0.91" fill="#87d146" d="M 130.5,85.5 C 137.657,85.155 140.824,88.4884 140,95.5C 136.455,101.209 132.121,101.875 127,97.5C 124.845,92.4698 126.012,88.4698 130.5,85.5 Z"/></g>
<g><path style="opacity:0.94" fill="#f5c84b" d="M 102.5,127.5 C 104.412,130.681 106.245,134.015 108,137.5C 111.885,141.575 116.385,144.575 121.5,146.5C 112.542,149.792 106.209,155.792 102.5,164.5C 99.3064,155.14 92.9731,148.973 83.5,146C 93.651,143.682 99.9844,137.515 102.5,127.5 Z"/></g>
<g><path style="opacity:1" fill="#f7ceb3" d="M 268.5,150.5 C 276.189,155.981 284.522,160.481 293.5,164C 302.881,167.376 312.548,168.876 322.5,168.5C 322.667,193.169 322.5,217.836 322,242.5C 318.663,264.352 307.497,280.852 288.5,292C 266.5,292.667 244.5,292.667 222.5,292C 203.503,280.852 192.337,264.352 189,242.5C 188.167,220.492 188.334,198.492 189.5,176.5C 214.739,181.219 237.739,176.053 258.5,161C 262.037,157.631 265.371,154.131 268.5,150.5 Z"/></g>
<g><path style="opacity:1" fill="#f3cbaf" d="M 171.5,183.5 C 173.833,183.5 176.167,183.5 178.5,183.5C 178.5,200.167 178.5,216.833 178.5,233.5C 160.323,231.169 152.157,220.836 154,202.5C 156.928,193.408 162.762,187.075 171.5,183.5 Z"/></g>
<g><path style="opacity:1" fill="#f3cbaf" d="M 332.5,183.5 C 350.865,185.705 359.032,196.038 357,214.5C 353.193,226.484 345.027,232.817 332.5,233.5C 332.5,216.833 332.5,200.167 332.5,183.5 Z"/></g>
<g><path style="opacity:1" fill="#070605" d="M 221.5,203.5 C 231.158,201.993 235.325,205.993 234,215.5C 229.418,222.418 224.085,223.084 218,217.5C 215.267,211.722 216.434,207.056 221.5,203.5 Z"/></g>
<g><path style="opacity:1" fill="#070605" d="M 283.5,203.5 C 293.158,201.993 297.325,205.993 296,215.5C 291.418,222.418 286.085,223.084 280,217.5C 277.267,211.722 278.434,207.056 283.5,203.5 Z"/></g>
<g><path style="opacity:1" fill="#080605" d="M 235.5,245.5 C 236.873,245.343 238.207,245.51 239.5,246C 242.659,249.082 246.325,251.416 250.5,253C 255.167,253.667 259.833,253.667 264.5,253C 268.967,250.837 273.134,248.337 277,245.5C 281.206,246.528 282.539,249.195 281,253.5C 272.325,262.501 261.825,265.668 249.5,263C 243.48,261.239 238.314,258.073 234,253.5C 233.109,250.502 233.609,247.836 235.5,245.5 Z"/></g>
<g><path style="opacity:1" fill="#ecf3fb" d="M 155.5,302.5 C 222.167,302.333 288.834,302.5 355.5,303C 356.664,351.763 356.83,400.596 356,449.5C 355.5,450 355,450.5 354.5,451C 288.5,451.667 222.5,451.667 156.5,451C 156,450.5 155.5,450 155,449.5C 154.172,400.429 154.339,351.429 155.5,302.5 Z"/></g>
<g><path style="opacity:0.952" fill="#fc647d" d="M 440.5,330.5 C 447.712,330.725 450.379,334.392 448.5,341.5C 459.818,341.116 462.485,345.616 456.5,355C 453.854,355.497 451.187,355.664 448.5,355.5C 450.007,363.825 446.673,367.325 438.5,366C 435.769,363.103 434.769,359.603 435.5,355.5C 425.477,356.496 422.477,352.496 426.5,343.5C 429.276,341.87 432.276,341.203 435.5,341.5C 434.379,336.291 436.045,332.624 440.5,330.5 Z"/></g>
<g><path style="opacity:1" fill="#6fd4f6" d="M 144.5,436.5 C 134.167,436.5 123.833,436.5 113.5,436.5C 113.5,432.167 113.5,427.833 113.5,423.5C 113.836,407.413 115.003,391.413 117,375.5C 122.557,364.129 131.724,358.129 144.5,357.5C 144.5,383.833 144.5,410.167 144.5,436.5 Z"/></g>
<g><path style="opacity:1" fill="#6fd4f7" d="M 397.5,423.5 C 397.5,427.833 397.5,432.167 397.5,436.5C 387.167,436.5 376.833,436.5 366.5,436.5C 366.333,410.165 366.5,383.831 367,357.5C 376.488,358.577 384.488,362.577 391,369.5C 392,371.5 393,373.5 394,375.5C 395.654,391.436 396.82,407.436 397.5,423.5 Z"/></g>
<g><path style="opacity:1" fill="#0a0a0a" d="M 239.5,371.5 C 250.172,371.333 260.839,371.5 271.5,372C 274.978,374.706 275.311,377.706 272.5,381C 261.167,381.667 249.833,381.667 238.5,381C 235.753,377.553 236.087,374.386 239.5,371.5 Z"/></g>
<g><path style="opacity:0.92" fill="#f5c84b" d="M 426.5,403.5 C 433.657,403.155 436.824,406.488 436,413.5C 432.455,419.209 428.121,419.875 423,415.5C 420.845,410.47 422.012,406.47 426.5,403.5 Z"/></g>
<g><path style="opacity:1" fill="#4b90a8" d="M 113.5,423.5 C 113.5,427.833 113.5,432.167 113.5,436.5C 123.833,436.5 134.167,436.5 144.5,436.5C 134.013,437.494 123.346,437.828 112.5,437.5C 112.181,432.637 112.514,427.97 113.5,423.5 Z"/></g>
<g><path style="opacity:1" fill="#4b90a8" d="M 397.5,423.5 C 398.486,427.97 398.819,432.637 398.5,437.5C 387.654,437.828 376.987,437.494 366.5,436.5C 376.833,436.5 387.167,436.5 397.5,436.5C 397.5,432.167 397.5,427.833 397.5,423.5 Z"/></g>
<g><path style="opacity:1" fill="#f5ccb1" d="M 112.5,448.5 C 122.987,447.506 133.654,447.172 144.5,447.5C 144.5,448.833 144.5,450.167 144.5,451.5C 135.675,453.804 132.508,459.471 135,468.5C 136.039,470.746 137.206,472.913 138.5,475C 132.843,475.499 127.176,475.666 121.5,475.5C 122.335,467.794 121.169,460.461 118,453.5C 116.296,451.627 114.463,449.96 112.5,448.5 Z"/></g>
<g><path style="opacity:1" fill="#f4ccb1" d="M 366.5,447.5 C 377.5,447.5 388.5,447.5 399.5,447.5C 400,456.826 400.333,466.159 400.5,475.5C 391.161,475.666 381.827,475.5 372.5,475C 377.999,467.211 377.665,459.878 371.5,453C 369.975,451.991 368.308,451.491 366.5,451.5C 366.5,450.167 366.5,448.833 366.5,447.5 Z"/></g>
<g><path style="opacity:1" fill="#d9e5f0" d="M 144.5,461.5 C 218.5,461.5 292.5,461.5 366.5,461.5C 366.614,468.113 363.614,472.613 357.5,475C 289.5,475.667 221.5,475.667 153.5,475C 147.386,472.613 144.386,468.113 144.5,461.5 Z"/></g>
<g><path style="opacity:1" fill="#518fda" d="M 29.5,485.5 C 180.167,485.333 330.834,485.5 481.5,486C 482.833,491 482.833,496 481.5,501C 330.833,501.667 180.167,501.667 29.5,501C 28.1904,495.834 28.1904,490.667 29.5,485.5 Z"/></g>
</svg>
